# xmcd CD database file
#
# Track frame offsets:
#	150
#	41455
#	63857
#	84710
#	123482
#	140362
#	175545
#
# Disc length: 2748 seconds
#
# Revision: 0
# Processed by: cddbd v1.4PL0 Copyright (c) Steve Scherf et al.
# Submitted via: CDex 1.50beta10
#
DISCID=540aba07
DTITLE=Schfvilkus - ambidustrious
DYEAR=1998
DGENRE=Jazz
TTITLE0=akopolips
TTITLE1=huntsback
TTITLE2=reprise demise
TTITLE3=lloyd's inlet
TTITLE4=weeblin'
TTITLE5=cachet
TTITLE6=for elmer
EXTD=YEAR: 1998
EXTT0=
EXTT1=
EXTT2=
EXTT3=
EXTT4=
EXTT5=
EXTT6=
PLAYORDER=
